#!OML:ASF F:\VICON\USERDATA\INSTALL\Justin_Nancy\Justin_Nancy.ASF
:FULLY-SPECIFIED
:DEGREES
48
root -11.6176 15.4525 -14.9199 -3.2721 1.65374 4.51658
lowerback 14.9425 2.90324 -5.14017
upperback 2.6405 3.21146 2.8573
thorax -6.01074 1.70508 5.31652
lowerneck -20.1014 -2.81162 -7.83306
upperneck 16.2949 -2.32407 3.8027
head 8.52359 -1.18635 2.26294
rclavicle 2.5842e-015 6.36111e-015
rhumerus -40.2102 11.5574 -91.0767
rradius 108.507
rwrist -2.03587
rhand -19.6941 36.3412
rfingers 7.12502
rthumb 6.63511 6.46518
lclavicle 2.5842e-015 6.36111e-015
lhumerus -44.5927 -6.6394 94.0551
lradius 103.278
lwrist 18.5577
lhand -21.0724 8.07429
lfingers 7.12502
lthumb 5.30445 37.9879
rfemur -24.0674 -11.0746 0.911065
rtibia 96.2824
rfoot -11.823 -6.80468
rtoes 6.43182
lfemur -33.8046 1.59707 -39.8571
ltibia 60.2825
lfoot -17.0057 2.46516
ltoes 12.9801
49
root -11.5944 15.4575 -14.6874 -2.76626 1.86656 4.79885
lowerback 14.9227 2.79863 -5.41089
upperback 2.57128 3.03113 2.85667
thorax -6.06325 1.62569 5.50933
lowerneck -20.2353 -2.54834 -7.70735
upperneck 16.343 -1.98344 3.77118
head 8.53974 -1.02077 2.27708
rclavicle -2.44505e-014 -6.36111e-015
rhumerus -40.8802 12.0051 -91.2591
rradius 109.37
rwrist -3.2528
rhand -19.0383 34.8414
rfingers 7.12502
rthumb 7.2682 4.98625
lclavicle -2.44505e-014 -6.36111e-015
lhumerus -44.1873 -6.59288 94.3981
lradius 104.466
lwrist 20.08
lhand -20.1996 8.37708
lfingers 7.12502
lthumb 6.14716 38.2679
rfemur -27.4419 -11.003 1.12864
rtibia 95.712
rfoot -12.7802 -7.51597
rtoes 5.56818
lfemur -33.4954 1.66307 -40.2275
ltibia 60.6481
lfoot -17.6712 2.09741
ltoes 12.1274
50
root -11.5716 15.4848 -14.4565 -2.25054 2.29995 4.93051
lowerback 14.8477 2.61823 -5.5379
upperback 2.56453 2.77953 2.90294
thorax -6.00228 1.50431 5.6876
lowerneck -20.3546 -2.39238 -7.50424
upperneck 16.1048 -1.7824 3.60313
head 8.46307 -0.9271 2.21088
rclavicle 8.34896e-015 -2.06736e-014
rhumerus -41.3998 12.4697 -91.3448
rradius 110.122
rwrist -4.43896
rhand -18.3035 33.0209
rfingers 7.12502
rthumb 7.97739 3.19146
lclavicle 8.34896e-015 -2.06736e-014
lhumerus -43.7334 -6.61634 94.7861
lradius 105.583
lwrist 21.7911
lhand -19.741 8.06232
lfingers 7.12502
lthumb 6.58986 37.9398
rfemur -30.4491 -10.8791 1.54831
rtibia 94.5184
rfoot -13.4222 -8.21781
rtoes 4.61519
lfemur -33.1601 1.49869 -40.4292
ltibia 60.9101
lfoot -18.2005 1.7805
ltoes 11.7217
51
root -11.5529 15.5073 -14.2273 -1.82425 2.9867 4.96217
lowerback 14.98 2.31527 -5.55934
upperback 2.42796 2.37589 3.00748
thorax -6.16893 1.31733 5.89538
lowerneck -20.1077 -2.18314 -7.26854
upperneck 15.9607 -1.54075 3.39176
head 8.35333 -0.820935 2.13139
rclavicle -2.78299e-015 -4.45278e-014
rhumerus -42.0164 13.059 -91.4408
rradius 110.734
rwrist -5.43008
rhand -17.9059 30.1419
rfingers 7.12502
rthumb 8.36118 0.327428
lclavicle -2.78299e-015 -4.45278e-014
lhumerus -43.8283 -6.61706 95.2729
lradius 106.829
lwrist 23.1916
lhand -19.6646 8.07173
lfingers 7.12502
lthumb 6.66364 37.9469
rfemur -33.0897 -10.6912 1.97713
rtibia 92.8144
rfoot -14.0698 -8.88225
rtoes 2.11087
lfemur -32.7361 1.17659 -40.5288
ltibia 61.1761
lfoot -18.0055 1.47071
ltoes 12.1908
52
root -11.5285 15.548 -13.9949 -1.47673 3.53622 5.03122
lowerback 15.1108 2.05612 -5.60062
upperback 2.27516 2.02815 3.12667
thorax -6.35994 1.16018 6.12093
lowerneck -19.6488 -1.89147 -7.0776
upperneck 15.9752 -1.20355 3.24401
head 8.25741 -0.668866 2.09418
rclavicle -1.35174e-014 -1.74931e-014
rhumerus -42.5676 13.7875 -91.4313
rradius 111.307
rwrist -6.46831
rhand -18.327 31.089
rfingers 7.12502
rthumb 7.95477 1.25871
lclavicle -1.35174e-014 -1.74931e-014
lhumerus -44.1073 -6.62485 95.7416
lradius 107.994
lwrist 24.1922
lhand -19.3343 7.74614
lfingers 7.12502
lthumb 6.9825 37.611
rfemur -35.3712 -10.1355 2.20356
rtibia 90.5566
rfoot -14.6161 -9.50744
rtoes -0.373754
lfemur -32.3852 1.08973 -40.6683
ltibia 61.5063
lfoot -16.7304 0.808224
ltoes 16.4952
53
root -11.502 15.6102 -13.7592 -1.2107 3.99212 5.08265
lowerback 15.0433 1.86488 -5.72517
upperback 2.40648 1.77428 3.34448
thorax -6.15405 1.03134 6.48508
lowerneck -19.695 -1.69393 -7.08119
upperneck 16.0707 -0.897257 3.08588
head 8.28034 -0.54214 2.08097
rclavicle 1.35174e-014 6.36111e-015
rhumerus -42.8071 14.5767 -91.2544
rradius 111.826
rwrist -7.31424
rhand -19.5966 34.1524
rfingers 7.12502
rthumb 6.72923 4.27929
lclavicle 1.35174e-014 6.36111e-015
lhumerus -43.6645 -6.7521 96.2884
lradius 108.695
lwrist 24.6013
lhand -19.5023 7.2867
lfingers 7.12502
lthumb 6.82033 37.1568
rfemur -37.1824 -9.1758 2.29608
rtibia 87.7616
rfoot -15.2183 -10.0001
rtoes -0.583499
lfemur -32.0691 1.20671 -40.7473
ltibia 61.9575
lfoot -17.0699 0.176172
ltoes 14.7162
54
root -11.4776 15.6796 -13.5223 -1.15514 4.49136 4.83007
lowerback 15.2804 1.70124 -5.58674
upperback 2.60831 1.59222 3.67115
thorax -6.04481 0.933727 6.79924
lowerneck -19.9224 -1.57336 -6.96787
upperneck 16.047 -0.666353 2.68863
head 8.29814 -0.466478 1.95694
rclavicle 2.56432e-014 1.59028e-014
rhumerus -43.2437 15.1405 -91.1203
rradius 112.304
rwrist -7.12959
rhand -21.54 37.3851
rfingers 7.12502
rthumb 4.85297 7.46069
lclavicle 2.56432e-014 1.59028e-014
lhumerus -43.1383 -7.03499 96.8821
lradius 109.25
lwrist 24.5847
lhand -19.5104 7.48442
lfingers 7.12502
lthumb 6.81249 37.3548
rfemur -38.4909 -7.98156 2.54742
rtibia 84.4794
rfoot -15.1309 -9.97566
rtoes 0.579972
lfemur -31.5419 1.35182 -40.4417
ltibia 62.428
lfoot -16.8177 -0.448575
ltoes 13.8054
55
root -11.462 15.7238 -13.2899 -1.17087 5.07821 4.32524
lowerback 16.0922 1.41476 -5.0086
upperback 2.36606 1.29568 3.91401
thorax -6.69785 0.808082 6.79763
lowerneck -19.4303 -1.3486 -6.7645
upperneck 15.9904 -0.407042 2.44956
head 8.17991 -0.357687 1.87474
rclavicle 1.90833e-014 3.18055e-015
rhumerus -43.9065 16.0599 -91.3566
rradius 111.97
rwrist -6.0087
rhand -23.2183 38.6269
rfingers 7.12502
rthumb 3.23232 8.67164
lclavicle 1.90833e-014 3.18055e-015
lhumerus -44.0288 -7.11183 97.2475
lradius 110.19
lwrist 24.2712
lhand -19.1815 7.65444
lfingers 7.12502
lthumb 7.12993 37.5143
rfemur -39.5406 -6.60822 2.87151
rtibia 80.9277
rfoot -14.8841 -9.81825
rtoes -0.574534
lfemur -30.5917 1.3846 -39.7827
ltibia 63.0146
lfoot -16.4373 -0.998956
ltoes 11.4065
56
root -11.445 15.7913 -13.055 -1.17806 5.90322 3.73148
lowerback 16.1287 1.06243 -4.31929
upperback 2.65657 0.969972 4.23812
thorax -6.34904 0.617794 6.82035
lowerneck -19.3032 -1.25071 -6.6446
upperneck 15.6494 -0.266149 2.19416
head 8.03636 -0.304927 1.78349
rclavicle 1.35174e-014 -3.18055e-015
rhumerus -44.1332 16.411 -91.158
rradius 112.266
rwrist -5.28219
rhand -19.6112 30.2403
rfingers 7.12502
rthumb 6.71516 0.366778
lclavicle 1.35174e-014 -3.18055e-015
lhumerus -44.1051 -7.28877 97.675
lradius 110.886
lwrist 23.5338
lhand -18.794 7.34339
lfingers 7.12502
lthumb 7.504 37.1903
rfemur -40.0176 -5.31213 3.04935
rtibia 76.9124
rfoot -15.332 -9.55708
rtoes -4.44573
lfemur -29.8863 1.47147 -39.0081
ltibia 63.5914
lfoot -15.8143 -2.02216
ltoes 6.09385
